<?xml version="1.0" encoding="UTF-8"?>
<!DOCTYPE svg PUBLIC "-//W3C//DTD SVG 1.1//EN" "http://www.w3.org/Graphics/SVG/1.1/DTD/svg11.dtd">
<svg version="1.1" xmlns="http://www.w3.org/2000/svg" xmlns:xlink="http://www.w3.org/1999/xlink" x="0" y="0" width="650" height="650" viewBox="0, 0, 650, 650">
  <g id="Layer_1">
    <g>
      <path d="M615.388,25.5 C620.973,25.5 625.5,30.964 625.5,37.703 L625.5,613.297 C625.5,620.036 620.973,625.5 615.388,625.5 L35.612,625.5 C30.027,625.5 25.5,620.036 25.5,613.297 L25.5,37.703 C25.5,30.964 30.027,25.5 35.612,25.5 L615.388,25.5 z M278.908,113.976 L261.5,113.976 Q251.26,115 237.948,116.792 Q224.636,118.584 211.324,120.888 Q198.012,123.192 185.98,126.264 Q173.948,129.336 166.268,132.408 L166.268,152.376 L205.18,156.472 L205.18,466.744 Q187.26,470.84 171.388,479.032 L171.388,499 L307.068,499 L307.068,479.032 Q299.9,473.912 293.5,471.352 Q287.1,468.792 278.908,466.744 L278.908,324.408 Q285.052,305.976 299.388,291.896 Q313.724,277.816 334.204,277.816 Q358.78,277.816 367.228,298.552 Q375.676,319.288 375.676,363.32 L375.676,466.744 Q366.972,469.304 360.316,472.376 Q353.66,475.448 347.516,479.032 L347.516,499 L483.196,499 L483.196,479.032 Q475.516,473.912 466.812,471.352 Q458.108,468.792 449.404,466.744 L449.404,344.376 Q449.404,312.632 443.772,291.896 Q438.14,271.16 427.388,258.872 Q416.636,246.584 400.508,241.72 Q384.38,236.856 363.9,236.856 Q349.564,236.856 336.764,241.464 Q323.964,246.072 312.956,254.008 Q301.948,261.944 293.244,272.44 Q284.54,282.936 279.42,294.712 L278.908,294.712 L278.908,113.976 z" fill="#000000"/>
      <path d="M615.388,25.5 C620.973,25.5 625.5,30.964 625.5,37.703 L625.5,613.297 C625.5,620.036 620.973,625.5 615.388,625.5 L35.612,625.5 C30.027,625.5 25.5,620.036 25.5,613.297 L25.5,37.703 C25.5,30.964 30.027,25.5 35.612,25.5 L615.388,25.5 z M278.908,113.976 L261.5,113.976 Q251.26,115 237.948,116.792 Q224.636,118.584 211.324,120.888 Q198.012,123.192 185.98,126.264 Q173.948,129.336 166.268,132.408 L166.268,152.376 L205.18,156.472 L205.18,466.744 Q187.26,470.84 171.388,479.032 L171.388,499 L307.068,499 L307.068,479.032 Q299.9,473.912 293.5,471.352 Q287.1,468.792 278.908,466.744 L278.908,324.408 Q285.052,305.976 299.388,291.896 Q313.724,277.816 334.204,277.816 Q358.78,277.816 367.228,298.552 Q375.676,319.288 375.676,363.32 L375.676,466.744 Q366.972,469.304 360.316,472.376 Q353.66,475.448 347.516,479.032 L347.516,499 L483.196,499 L483.196,479.032 Q475.516,473.912 466.812,471.352 Q458.108,468.792 449.404,466.744 L449.404,344.376 Q449.404,312.632 443.772,291.896 Q438.14,271.16 427.388,258.872 Q416.636,246.584 400.508,241.72 Q384.38,236.856 363.9,236.856 Q349.564,236.856 336.764,241.464 Q323.964,246.072 312.956,254.008 Q301.948,261.944 293.244,272.44 Q284.54,282.936 279.42,294.712 L278.908,294.712 L278.908,113.976 z" fill-opacity="0" stroke="#000000" stroke-width="1"/>
    </g>
  </g>
</svg>
